<svg id="Layer_1" data-name="Layer 1" xmlns="http://www.w3.org/2000/svg" viewBox="0 0 27.43 32.06"><defs><style>.cls-1{fill:#048e99;}.cls-2{fill:#078f99;}.cls-3{fill:#d9365c;}.cls-4{fill:#efba08;}.cls-5{fill:#da4263;}.cls-6{fill:#fdfdfd;}.cls-7{fill:#fcf8f9;}</style></defs><path class="cls-1" d="M34,23.57a15.91,15.91,0,0,1-2.39,6.06,14.7,14.7,0,0,1-6.94,6,11.76,11.76,0,0,1-11.44-1.31,16.86,16.86,0,0,1-6.51-8.7c-.06-.19-.11-.39-.16-.59s0-.1.06-.21c4.2,2.65,8.89,2.85,13.61,2.59A29.76,29.76,0,0,0,33.57,23.7C33.64,23.66,33.73,23.65,34,23.57Z" transform="translate(-6.51 -4.49)"/><path class="cls-2" d="M24.34,14.59a12.77,12.77,0,0,1,6.14-.92,5.31,5.31,0,0,1,3.42,1.7c-.2.29-.45.15-.66.16-2.14,0-4.29,0-6.44.17a7.78,7.78,0,0,0-5.9,2.77A12,12,0,0,0,14.26,15a15.76,15.76,0,0,0-7.43.48c1.63-3.57,5.75-4.35,10.73-2a24.72,24.72,0,0,1-2.11-9c3.16,2,4.62,4.83,5.28,8.5,1.11-3.39,2.83-5.94,6.18-7.36a20.64,20.64,0,0,1-2.76,8.78c-.06.07-.19.15-.08.25S24.27,14.68,24.34,14.59Z" transform="translate(-6.51 -4.49)"/><path class="cls-3" d="M17.24,25.78a27.9,27.9,0,0,1-6.84-1.21c-2.14-.67-2.71-2.08-1.78-4.12a5.37,5.37,0,0,1,8.28-1.72,7.57,7.57,0,0,1,2.8,6.2c0,.61-.23.86-.8.85S17.79,25.78,17.24,25.78Zm-3.42-6.12a1.19,1.19,0,0,0-1.13-1.32,2.73,2.73,0,0,0-3,2.32,1.3,1.3,0,0,0,1.22,1.49A2.73,2.73,0,0,0,13.82,19.66Z" transform="translate(-6.51 -4.49)"/><path class="cls-4" d="M21.44,25.57A10.75,10.75,0,0,1,23,19a3.74,3.74,0,0,1,4.35-1.55,6.93,6.93,0,0,1,4,2.88c.75,1.13.52,1.92-.66,2.59a16.38,16.38,0,0,1-4.1,1.44Zm6.65-6.5c-.41,0-.53.16-.43.62a2.52,2.52,0,0,0,2,1.59c.53,0,.64-.28.47-.75A3,3,0,0,0,28.09,19.07Z" transform="translate(-6.51 -4.49)"/><path class="cls-5" d="M20.28,19.57a1.48,1.48,0,0,1,.51,1.22c0,.25-.09.47-.37.51s-.47-.18-.52-.46A1.48,1.48,0,0,1,20.28,19.57Z" transform="translate(-6.51 -4.49)"/><path class="cls-5" d="M17.56,17.35c.57-.31.91.06,1.25.39.15.14.09.31,0,.45a.36.36,0,0,1-.47.07C18,18,17.61,17.85,17.56,17.35Z" transform="translate(-6.51 -4.49)"/><path class="cls-6" d="M24.34,14.59c-.07.09-.18.14-.27.07s0-.18.08-.25Z" transform="translate(-6.51 -4.49)"/><path class="cls-7" d="M13.82,19.66a2.73,2.73,0,0,1-2.88,2.49,1.3,1.3,0,0,1-1.22-1.49,2.73,2.73,0,0,1,3-2.32A1.19,1.19,0,0,1,13.82,19.66Z" transform="translate(-6.51 -4.49)"/><path class="cls-7" d="M28.09,19.07a3,3,0,0,1,2,1.46c.17.47.06.74-.47.75a2.52,2.52,0,0,1-2-1.59C27.56,19.23,27.68,19.06,28.09,19.07Z" transform="translate(-6.51 -4.49)"/></svg>